# xmcd CD database file
# Copyright (C) 1993-1998 Ti Kan
#
# Track frame offsets:
#     150
#     12185
#     24760
#     37065
#     51507
#     64182
#     77542
#     89617
#     101997
#     115000
#     126935
#     139490
#     152032
#     164595
#     177065
#
# Disc length: 2520 seconds
#
# Revision: 0
# Processed by: cddbd v1.4b41PL1 Copyright (c) Steve Scherf et al.
# Submitted via: Clarion 0.9.3
#
DISCID=cb09d60f
DTITLE=Various Artist - Rhytm And Blues Vol 1
DYEAR=1900
DGENRE=
TTITLE0=Ray Charles - Mess Around
TTITLE1=Joe Turner - Flip Flop And Fly
TTITLE2=Johnny Otis - High Heel Sneakers
TTITLE3=Dinah Washington - I Don't Hurt Anymore
TTITLE4=Wynonie Harris - Good Rocking' Tonight
TTITLE5=La Vern Baker - Play It Fair
TTITLE6=Stick McGhee - One Monkey Don't Stop No Show
TTITLE7=Louis Jordan - Caldonia
TTITLE8=Ruth Brown - Teardrops From My Eyes
TTITLE9=Earl Bostic - Flamingo
TTITLE10=Clyde McPhatter and The Drifters - Watcha Gonna Do?
TTITLE11=Tommy Ridgley - Jam Up
TTITLE12=The Robins - Smokey Joe's Cafe
TTITLE13=Tinny Grimes - Midnight Special
TTITLE14=Willie Jackson - Gator's Groove
EXTD=
EXTT0=
EXTT1=
EXTT2=
EXTT3=
EXTT4=
EXTT5=
EXTT6=
EXTT7=
EXTT8=
EXTT9=
EXTT10=
EXTT11=
EXTT12=
EXTT13=
EXTT14=
PLAYORDER=
